# xmcd
#
# Track frame offsets: 
#        150
#        12974
#        28827
#        39871
#        51933
#        65002
#        76785
#        87786
#        97455
#        109659
#        118846
#        131149
#        143615
#        159343
#        171804
#        183976
#
# Disc length: 2616 seconds
#
# Revision: 4
# Processed by: cddbd v1.5.2PL0 Copyright (c) Steve Scherf et al.
# Submitted via: ExactAudioCopyFreeDBPlugin 1.0
#
DISCID=d30a3610
DTITLE=Various Artist - The Essential Guide To Country-Country Legend
DTITLE=s CD 3
DYEAR=2007
DGENRE=Country
TTITLE0=The Carter Family - Keep On The Sunny Side
TTITLE1=Jimmie Rodgers - Blue Yodel N°1 (T For Texas)
TTITLE2=The Lonroe Brothers - Roll In My Sweet Baby`S Arms
TTITLE3=Bob Wills and His Texas Playboys - Take Me Back To Tulsa
TTITLE4=Roy Acuff and His Crazy Tennesseans - Great Speckled Bird
TTITLE5=Ernest Tubb - Walking The Floor Over You
TTITLE6=The Stanley Brother - Molly And Tenbrook
TTITLE7=Lester Flatt - Foggy Mountain Chimes
TTITLE8=Hank William and The Drifting Cowboys - Your Cheatin` Heart
TTITLE9=Georges Jones - Honky Tonkin`
TTITLE10=Johnny Cash - I Walk The Line
TTITLE11=Jerry Lee Lewis - Crazy Arms
TTITLE12=Louvin Brothers - The Weapon Of Prayer
TTITLE13=Jim Reeves - I Love You Because
TTITLE14=Charlie Rich - The Most Beautiful Girl In The World
TTITLE15=Patsy Cline - Crazy
EXTD=YEAR: 2007
EXTT0=
EXTT1=
EXTT2=
EXTT3=
EXTT4=
EXTT5=
EXTT6=
EXTT7=
EXTT8=
EXTT9=
EXTT10=
EXTT11=
EXTT12=
EXTT13=
EXTT14=
EXTT15=
PLAYORDER=
